# xmcd
#
# Track frame offsets: 
#        150
#        25849
#        41503
#        56812
#        73117
#        88864
#        100759
#        121822
#        133684
#        151651
#        169564
#        184144
#        198497
#        215680
#        230062
#        243391
#        257644
#        275950
#        294481
#        307984
#
# Disc length: 4284 seconds
#
# Revision: 0
# Processed by: cddbd v1.5.2PL0 Copyright (c) Steve Scherf et al.
# Submitted via: ExactAudioCopy v1.1
#
DISCID=2710ba14
DTITLE=Various Artist - De Pré Historie - De Jaren '70 Vol. 2 - De Ultieme 10
DTITLE=CD Collectie - 1973
DYEAR=2019
DGENRE=Top 40
TTITLE0=Thin Lizzy - Whiskey In The Jar
TTITLE1=Roger Daltrey - Giving It All Away
TTITLE2=Albert Hammond - The Free Electric Band
TTITLE3=Demis Roussos - Forever And Ever
TTITLE4=Mocedades - Eres Tu
TTITLE5=Anne - Marie David - Tu Te Reconnaîtras
TTITLE6=Peter En Zijn Rockets - Angeline (M'n Blonde Sexmachine)
TTITLE7=Gilbert O'Sullivan - Get Down
TTITLE8=Left Side - (Like A) Locomotion
TTITLE9=Chi Coltrane - Go Like Elijah
TTITLE10=Elton John - Goodbye Yellow Brick Road
TTITLE11=Barry Blue - Dancin' (On A Saturday Night)
TTITLE12=Salix Alba - Oh Mama
TTITLE13=Earth and Fire - Maybe Tomorrow, Maybe Tonight
TTITLE14=Redbone - Wovoka
TTITLE15=Ignace - More Than Sympathy
TTITLE16=Dalida and Alain Delon - Paroles, Paroles
TTITLE17=Kiki Dee - Amoureuse
TTITLE18=Nino Tempo and April Stevens - Love Story
TTITLE19=Bobby Vinton - Hurt
EXTD=
EXTT0=
EXTT1=
EXTT2=
EXTT3=
EXTT4=
EXTT5=
EXTT6=
EXTT7=
EXTT8=
EXTT9=
EXTT10=
EXTT11=
EXTT12=
EXTT13=
EXTT14=
EXTT15=
EXTT16=
EXTT17=
EXTT18=
EXTT19=
PLAYORDER=
